<?xml version="1.0" encoding="UTF-8" standalone="no"?>
<!-- Created with Inkscape (http://www.inkscape.org/) -->

<svg
   xmlns:dc="http://purl.org/dc/elements/1.1/"
   xmlns:cc="http://creativecommons.org/ns#"
   xmlns:rdf="http://www.w3.org/1999/02/22-rdf-syntax-ns#"
   xmlns:svg="http://www.w3.org/2000/svg"
   xmlns="http://www.w3.org/2000/svg"
   xmlns:sodipodi="http://sodipodi.sourceforge.net/DTD/sodipodi-0.dtd"
   xmlns:inkscape="http://www.inkscape.org/namespaces/inkscape"
   width="744.09448819"
   height="1052.3622047"
   id="svg2"
   version="1.1"
   inkscape:version="0.47pre0 r21549"
   sodipodi:docname="bluebream.svg"
   inkscape:output_extension="org.inkscape.output.svg.inkscape">
  <defs
     id="defs4">
    <inkscape:perspective
       sodipodi:type="inkscape:persp3d"
       inkscape:vp_x="0 : 526.18109 : 1"
       inkscape:vp_y="0 : 1000 : 0"
       inkscape:vp_z="744.09448 : 526.18109 : 1"
       inkscape:persp3d-origin="372.04724 : 350.78739 : 1"
       id="perspective10" />
  </defs>
  <sodipodi:namedview
     id="base"
     pagecolor="#ffffff"
     bordercolor="#666666"
     borderopacity="1.0"
     inkscape:pageopacity="0.0"
     inkscape:pageshadow="2"
     inkscape:zoom="0.48304094"
     inkscape:cx="301.42857"
     inkscape:cy="731.30751"
     inkscape:document-units="px"
     inkscape:current-layer="layer1"
     showgrid="false"
     inkscape:window-width="1228"
     inkscape:window-height="744"
     inkscape:window-x="52"
     inkscape:window-y="0"
     inkscape:window-maximized="1" />
  <metadata
     id="metadata7">
    <rdf:RDF>
      <cc:Work
         rdf:about="">
        <dc:format>image/svg+xml</dc:format>
        <dc:type
           rdf:resource="http://purl.org/dc/dcmitype/StillImage" />
        <dc:title />
      </cc:Work>
    </rdf:RDF>
  </metadata>
  <g
     inkscape:label="Layer 1"
     inkscape:groupmode="layer"
     id="layer1">
    <path
       style="fill:#2c89a0;fill-opacity:1;stroke:none"
       id="path3812"
       d="m 445.91712,146.54676 c -4.7897,-2.50911 -9.75063,2.36208 -10.36086,7.02257 -1.75714,5.26971 -1.50803,12.96094 4.52149,15.29428 17.1974,9.90965 30.69279,24.73518 44.8444,38.37709 15.20576,14.88345 27.54868,32.34567 40.93248,48.76985 5.34504,2.11048 10.36488,-6.343 5.42291,-9.7207 -22.82987,-34.14026 -48.02098,-67.13447 -78.55307,-94.81764 -2.15076,-1.80391 -4.504,-3.34166 -6.80735,-4.92545 z" />
    <path
       style="fill:#2c89a0;fill-opacity:1;stroke:none"
       d="m 628.62597,339.15493 c -8.73178,-4.158 -18.82575,5.72083 -16.65874,14.63026 -0.88703,15.39965 0.30878,30.83831 0.51174,46.22636 1.76313,11.63438 5.97144,22.70599 8.26234,34.22608 -29.39665,-28.59504 -48.36677,-65.9984 -61.97979,-104.24149 -4.63072,-7.72393 -8.74145,-15.80759 -13.6991,-23.30559 -3.47774,-4.10172 -10.03941,-5.50767 -14.3543,-1.85703 -8.63967,4.91729 -17.54755,9.41358 -27.10404,12.26474 -32.54024,10.94579 -67.15158,12.86672 -101.17628,14.5225 -30.63823,0.34139 -61.86306,-2.58291 -90.74645,-13.2561 -23.90306,-9.81733 -46.62179,-22.2228 -69.5067,-34.15472 -28.55938,-15.7042 -55.56246,-35.46312 -74.55135,-62.35377 -17.0853,-23.57098 -27.20183,-51.46374 -32.89458,-79.83428 -2.05066,-8.73221 -3.37581,-17.87681 -7.30252,-25.98289 -5.41484,-6.80511 -17.7574,-6.66601 -21.96478,1.39343 -7.371156,9.81629 -6.31238,23.08451 -3.20227,34.26908 3.48655,23.58764 10.9292,46.84697 24.09707,66.8764 19.40677,30.63874 48.33933,54.43168 80.53078,70.68302 70.73521,45.49531 136.98558,72.328 218.11848,66.63139 33.10936,-1.87889 69.55594,-10.11961 101.01818,-22.02125 5.71017,-2.07846 10.2678,3.44395 13.28037,7.50961 7.15339,11.37901 12.29103,23.96867 20.35392,34.80381 20.73302,28.68784 41.43033,59.84047 67.13123,84.03895 2.29591,3.43158 13.30775,9.37415 17.82933,6.95786 4.18333,-2.79413 -1.00264,-16.23744 -3.43306,-19.42516 -3.48558,-4.54242 -7.20189,-9.04153 -8.82478,-14.64297 -10.51091,-25.49549 -8.96487,-54.00679 -4.25973,-80.62259 0.67322,-4.28579 2.1115,-9.04678 0.84748,-13.20379 l -0.15791,-0.0731 -0.16454,-0.0588 0,10e-6 z"
       id="path3808"
       sodipodi:nodetypes="ccccccccccccccccccccccccccccccc" />
    <path
       style="fill:#216778;fill-opacity:1;stroke:none"
       id="path3806"
       d="m 410.58601,112.34928 c -38.14698,-13.718866 -79.3207,-12.22301 -119.22978,-12.01603 -29.06743,0.14258 -58.11358,1.45886 -87.09115,3.71919 -33.16155,2.40012 -66.34839,4.87758 -99.51572,6.91562 -7.864864,2.48876 -9.969401,14.22706 -3.49582,19.34776 5.10546,6.22137 13.16819,11.93454 21.5789,10.05992 5.1033,-2.15065 8.86008,-8.02993 15.04975,-6.96311 7.5544,0.25528 15.11442,0.32527 22.61628,-0.6988 51.27129,-4.11441 101.62127,-18.49574 153.35681,-16.65106 34.73742,0.20805 70.59575,3.75778 102.08193,19.51685 4.55034,2.60878 10.14067,6.2696 10.35423,12.03591 -3.56765,6.94715 -11.98729,8.51793 -17.66893,13.15357 -47.27449,27.60401 -94.93339,54.92169 -145.32547,76.50291 -35.42152,14.90299 -72.28602,28.58658 -102.4324,53.11685 -6.97193,5.94077 -13.87711,14.40812 -12.67741,24.14098 2.41432,8.988 13.2243,12.52946 21.56463,10.54576 25.85703,-2.43239 50.63707,-10.69803 75.57285,-17.46586 37.98368,-11.36038 76.0523,-22.8881 115.21604,-29.49219 27.40187,-4.69718 54.98181,-8.26871 82.51222,-12.11145 45.64743,-5.96077 91.7762,-9.76557 137.78256,-6.32539 10.53415,0.59504 21.14309,1.84308 31.63661,1.98014 2.64751,-1.62148 -0.63622,-4.9525 -2.89197,-4.11433 -32.55156,-3.3384 -65.22162,-5.55375 -97.95565,-5.65174 -41.10398,-0.18938 -82.34884,2.12816 -122.85829,9.49664 -42.17553,7.21757 -83.52184,18.38927 -125.34558,27.29777 -30.48137,6.64932 -61.10453,13.09247 -91.96918,17.49041 1.07052,-2.13113 3.98623,-3.77317 5.84841,-5.58967 15.21644,-12.30648 33.14446,-20.53323 49.40014,-31.29236 44.28674,-26.31322 92.31839,-45.45604 140.6058,-63.01649 27.35585,-10.6891 54.6586,-23.52508 76.39191,-43.68375 9.07906,-11.23874 5.11414,-29.56209 -6.99152,-36.99603 -7.76539,-6.04315 -16.93813,-9.91526 -26.1202,-13.25202 z" />
    <path
       style="fill:#2c89a0;fill-opacity:1;stroke:none"
       id="path3855"
       d="m 537.72329,270.20419 c 20.59657,-0.0656 41.1859,0.0979 61.78084,0.51746 19.9081,0.57917 39.85213,1.81927 59.77555,1.00228 9.68058,-0.39696 11.37218,-0.81417 20.50686,-2.02482 5.84436,-1.10324 11.72998,-2.2936 17.02165,-5.12287 0.92913,-0.49677 1.81772,-1.07196 2.67136,-1.68951 1.62264,-1.17389 1.81655,-0.80866 1.25396,-1.47415 -2.17104,6.43465 -2.30833,2.87375 4.02858,9.19445 0.0738,0.0736 -0.18245,-0.13624 -0.28617,-0.12602 -0.72677,0.0715 -1.45366,0.18109 -2.15993,0.36684 -3.54469,0.93227 -3.99541,1.41548 -7.56457,3.18543 -7.54521,4.8481 -14.20191,11.04594 -19.78378,18.06969 -2.7417,3.44993 -5.07923,7.20256 -7.61884,10.80383 -0.36135,0.56438 -8.34298,-4.54582 -7.98164,-5.11021 l 0,0 c 2.58516,-3.96447 4.96876,-8.06791 7.75548,-11.8934 5.91081,-8.11414 12.97591,-15.40932 21.01438,-21.41566 4.1591,-2.48973 8.14465,-4.92332 12.9163,-6.05376 1.15089,-0.27265 2.42982,-1.04993 3.50442,-0.55584 2.85252,1.31154 5.92698,2.94667 7.54598,5.63663 0.90916,1.51056 -0.68744,3.45845 -1.03115,5.18768 -0.62739,0.68609 -1.18054,1.44831 -1.88214,2.0583 -7.23613,6.29121 -17.52145,7.54294 -26.54597,9.06425 -3.30208,0.30187 -6.59655,0.70332 -9.90621,0.90561 -23.87159,1.45896 -47.79745,-0.93086 -71.66926,-1.08842 -20.27212,0.0147 -40.64124,0.0158 -60.75651,2.87872 -0.87091,0.18308 -3.46009,-12.13345 -2.58918,-12.31653 z" />
    <path
       style="fill:#006680;fill-opacity:1;stroke:none"
       id="path3875"
       d="m 244.40181,130.79539 c 7.25833,-1.71869 14.85955,-2.1935 22.29142,-1.5305 1.86967,0.16679 3.72002,0.5054 5.58004,0.75811 2.29434,0.57873 4.65065,0.95169 6.88302,1.73619 5.36035,1.8838 10.81599,6.93978 9.50863,13.21562 -0.3147,1.51069 -1.30238,2.79799 -1.95358,4.19699 -1.29161,1.09829 -2.43521,2.39936 -3.87487,3.29487 -5.55144,3.4532 -12.53591,3.98768 -18.85554,4.2103 -7.39068,0.26034 -11.10774,-0.0944 -18.52179,-0.47512 -7.0389,-0.81614 -10.82594,-1.00028 -17.74263,-2.85215 -4.35538,-1.1661 -11.11554,-3.88445 -9.28647,-10.04634 0.55964,-1.88533 2.4269,-3.09528 3.64035,-4.64291 1.78649,-0.91651 3.51023,-1.96727 5.35946,-2.74952 3.79383,-1.60485 9.77397,-3.2234 13.67007,-4.19467 4.70815,-1.1737 10.72664,-2.47804 15.5454,-3.13294 2.44528,-0.33232 4.91368,-0.46377 7.37052,-0.69565 0.498,-0.14531 2.55302,6.89753 2.05501,7.04285 l 0,0 c -2.29638,0.12834 -4.60303,0.133 -6.88916,0.38504 -10.62804,1.17172 -21.20071,4.20902 -30.84589,8.78315 -0.45056,0.0234 -0.91361,0.178 -1.3517,0.0701 -0.41699,-0.10271 -1.10046,-1.10295 -1.09832,-0.6735 0.007,1.45583 3.83635,2.81476 5.21327,3.32936 5.03472,1.8816 7.31994,1.81539 13.16093,2.68246 9.67987,0.49773 19.89204,1.18206 29.34631,-1.58459 2.65863,-0.778 3.44087,-1.34469 5.59714,-2.56546 0.3302,-0.30402 0.73061,-0.54618 0.9906,-0.91207 2.17935,-3.06722 -5.3831,-6.00253 -7.20945,-6.64152 -1.63499,-0.28913 -3.25559,-0.67675 -4.90498,-0.86737 -6.43396,-0.74359 -13.13369,-0.36012 -19.31017,1.63519 -0.54984,0.30883 -4.91746,-7.46708 -4.36762,-7.77592 z" />
    <text
       xml:space="preserve"
       style="font-size:96.1293335px;fill:#00222b;fill-opacity:1"
       x="285.88251"
       y="467.28714"
       id="text4747"><tspan
         sodipodi:role="line"
         id="tspan4749"
         x="285.88251"
         y="467.28714"
         style="font-style:normal;font-variant:normal;font-weight:normal;font-stretch:normal;fill:#00222b;fill-opacity:1;font-family:Perizia;-inkscape-font-specification:Perizia">bream</tspan></text>
    <text
       id="text4751"
       y="467.28714"
       x="97.980659"
       style="font-size:96.1293335px;fill:#2c89a0;fill-opacity:1"
       xml:space="preserve"><tspan
         style="font-style:normal;font-variant:normal;font-weight:normal;font-stretch:normal;fill:#2c89a0;fill-opacity:1;font-family:Perizia;-inkscape-font-specification:Perizia"
         y="467.28714"
         x="97.980659"
         id="tspan4753"
         sodipodi:role="line">blue</tspan></text>
  </g>
</svg>
