<?xml version="1.0" encoding="UTF-8" standalone="no"?>
<!-- Created with Inkscape (http://www.inkscape.org/) -->

<svg
   xmlns:dc="http://purl.org/dc/elements/1.1/"
   xmlns:cc="http://creativecommons.org/ns#"
   xmlns:rdf="http://www.w3.org/1999/02/22-rdf-syntax-ns#"
   xmlns:svg="http://www.w3.org/2000/svg"
   xmlns="http://www.w3.org/2000/svg"
   xmlns:sodipodi="http://sodipodi.sourceforge.net/DTD/sodipodi-0.dtd"
   xmlns:inkscape="http://www.inkscape.org/namespaces/inkscape"
   width="744.09448819"
   height="1052.3622047"
   id="svg2"
   version="1.1"
   inkscape:version="0.47pre4 r22446"
   sodipodi:docname="bluebream-logo-v1.svg"
   inkscape:output_extension="org.inkscape.output.svg.inkscape">
  <defs
     id="defs4" />
  <sodipodi:namedview
     id="base"
     pagecolor="#ffffff"
     bordercolor="#666666"
     borderopacity="1.0"
     inkscape:pageopacity="0.0"
     inkscape:pageshadow="2"
     inkscape:zoom="0.96608188"
     inkscape:cx="301.42857"
     inkscape:cy="727.16707"
     inkscape:document-units="px"
     inkscape:current-layer="layer1"
     showgrid="false"
     inkscape:window-width="1920"
     inkscape:window-height="1146"
     inkscape:window-x="0"
     inkscape:window-y="30"
     inkscape:window-maximized="1" />
  <metadata
     id="metadata7">
    <rdf:RDF>
      <cc:Work
         rdf:about="">
        <dc:format>image/svg+xml</dc:format>
        <dc:type
           rdf:resource="http://purl.org/dc/dcmitype/StillImage" />
        <dc:title></dc:title>
      </cc:Work>
    </rdf:RDF>
  </metadata>
  <g
     inkscape:label="Layer 1"
     inkscape:groupmode="layer"
     id="layer1">
    <path
       style="fill:#2c89a0;fill-opacity:1;stroke:none"
       id="path3812"
       d="m 445.91712,146.54676 c -4.7897,-2.50911 -9.75063,2.36208 -10.36086,7.02257 -1.75714,5.26971 -1.50803,12.96094 4.52149,15.29428 17.1974,9.90965 30.69279,24.73518 44.8444,38.37709 15.20576,14.88345 27.54868,32.34567 40.93248,48.76985 5.34504,2.11048 10.36488,-6.343 5.42291,-9.7207 -22.82987,-34.14026 -48.02098,-67.13447 -78.55307,-94.81764 -2.15076,-1.80391 -4.504,-3.34166 -6.80735,-4.92545 z" />
    <path
       style="fill:#2c89a0;fill-opacity:1;stroke:none"
       d="m 628.62597,339.15493 c -8.73178,-4.158 -18.82575,5.72083 -16.65874,14.63026 -0.88703,15.39965 0.30878,30.83831 0.51174,46.22636 1.76313,11.63438 5.97144,22.70599 8.26234,34.22608 -29.39665,-28.59504 -48.36677,-65.9984 -61.97979,-104.24149 -4.63072,-7.72393 -8.74145,-15.80759 -13.6991,-23.30559 -3.47774,-4.10172 -10.03941,-5.50767 -14.3543,-1.85703 -8.63967,4.91729 -17.54755,9.41358 -27.10404,12.26474 -32.54024,10.94579 -67.15158,12.86672 -101.17628,14.5225 -30.63823,0.34139 -61.86306,-2.58291 -90.74645,-13.2561 -23.90306,-9.81733 -46.62179,-22.2228 -69.5067,-34.15472 -28.55938,-15.7042 -55.56246,-35.46312 -74.55135,-62.35377 -17.0853,-23.57098 -27.20183,-51.46374 -32.89458,-79.83428 -2.05066,-8.73221 -3.37581,-17.87681 -7.30252,-25.98289 -5.41484,-6.80511 -17.7574,-6.66601 -21.96478,1.39343 -7.371156,9.81629 -6.31238,23.08451 -3.20227,34.26908 3.48655,23.58764 10.9292,46.84697 24.09707,66.8764 19.40677,30.63874 48.33933,54.43168 80.53078,70.68302 70.73521,45.49531 136.98558,72.328 218.11848,66.63139 33.10936,-1.87889 69.55594,-10.11961 101.01818,-22.02125 5.71017,-2.07846 10.2678,3.44395 13.28037,7.50961 7.15339,11.37901 12.29103,23.96867 20.35392,34.80381 20.73302,28.68784 41.43033,59.84047 67.13123,84.03895 2.29591,3.43158 13.30775,9.37415 17.82933,6.95786 4.18333,-2.79413 -1.00264,-16.23744 -3.43306,-19.42516 -3.48558,-4.54242 -7.20189,-9.04153 -8.82478,-14.64297 -10.51091,-25.49549 -8.96487,-54.00679 -4.25973,-80.62259 0.67322,-4.28579 2.1115,-9.04678 0.84748,-13.20379 l -0.15791,-0.0731 -0.16454,-0.0588 0,10e-6 z"
       id="path3808"
       sodipodi:nodetypes="ccccccccccccccccccccccccccccccc" />
    <path
       style="fill:#216778;fill-opacity:1;stroke:none"
       id="path3806"
       d="m 410.58601,112.34928 c -38.14698,-13.718866 -79.3207,-12.22301 -119.22978,-12.01603 -29.06743,0.14258 -58.11358,1.45886 -87.09115,3.71919 -33.16155,2.40012 -66.34839,4.87758 -99.51572,6.91562 -7.864864,2.48876 -9.969401,14.22706 -3.49582,19.34776 5.10546,6.22137 13.16819,11.93454 21.5789,10.05992 5.1033,-2.15065 8.86008,-8.02993 15.04975,-6.96311 7.5544,0.25528 15.11442,0.32527 22.61628,-0.6988 51.27129,-4.11441 101.62127,-18.49574 153.35681,-16.65106 34.73742,0.20805 70.59575,3.75778 102.08193,19.51685 4.55034,2.60878 10.14067,6.2696 10.35423,12.03591 -3.56765,6.94715 -11.98729,8.51793 -17.66893,13.15357 -47.27449,27.60401 -94.93339,54.92169 -145.32547,76.50291 -35.42152,14.90299 -72.28602,28.58658 -102.4324,53.11685 -6.97193,5.94077 -13.87711,14.40812 -12.67741,24.14098 2.41432,8.988 13.2243,12.52946 21.56463,10.54576 25.85703,-2.43239 50.63707,-10.69803 75.57285,-17.46586 37.98368,-11.36038 76.0523,-22.8881 115.21604,-29.49219 27.40187,-4.69718 54.98181,-8.26871 82.51222,-12.11145 45.64743,-5.96077 91.7762,-9.76557 137.78256,-6.32539 10.53415,0.59504 21.14309,1.84308 31.63661,1.98014 2.64751,-1.62148 -0.63622,-4.9525 -2.89197,-4.11433 -32.55156,-3.3384 -65.22162,-5.55375 -97.95565,-5.65174 -41.10398,-0.18938 -82.34884,2.12816 -122.85829,9.49664 -42.17553,7.21757 -83.52184,18.38927 -125.34558,27.29777 -30.48137,6.64932 -61.10453,13.09247 -91.96918,17.49041 1.07052,-2.13113 3.98623,-3.77317 5.84841,-5.58967 15.21644,-12.30648 33.14446,-20.53323 49.40014,-31.29236 44.28674,-26.31322 92.31839,-45.45604 140.6058,-63.01649 27.35585,-10.6891 54.6586,-23.52508 76.39191,-43.68375 9.07906,-11.23874 5.11414,-29.56209 -6.99152,-36.99603 -7.76539,-6.04315 -16.93813,-9.91526 -26.1202,-13.25202 z" />
    <path
       style="fill:#2c89a0;fill-opacity:1;stroke:none"
       id="path3855"
       d="m 537.72329,270.20419 c 20.59657,-0.0656 41.1859,0.0979 61.78084,0.51746 19.9081,0.57917 39.85213,1.81927 59.77555,1.00228 9.68058,-0.39696 11.37218,-0.81417 20.50686,-2.02482 5.84436,-1.10324 11.72998,-2.2936 17.02165,-5.12287 0.92913,-0.49677 1.81772,-1.07196 2.67136,-1.68951 1.62264,-1.17389 1.81655,-0.80866 1.25396,-1.47415 -2.17104,6.43465 -2.30833,2.87375 4.02858,9.19445 0.0738,0.0736 -0.18245,-0.13624 -0.28617,-0.12602 -0.72677,0.0715 -1.45366,0.18109 -2.15993,0.36684 -3.54469,0.93227 -3.99541,1.41548 -7.56457,3.18543 -7.54521,4.8481 -14.20191,11.04594 -19.78378,18.06969 -2.7417,3.44993 -5.07923,7.20256 -7.61884,10.80383 -0.36135,0.56438 -8.34298,-4.54582 -7.98164,-5.11021 l 0,0 c 2.58516,-3.96447 4.96876,-8.06791 7.75548,-11.8934 5.91081,-8.11414 12.97591,-15.40932 21.01438,-21.41566 4.1591,-2.48973 8.14465,-4.92332 12.9163,-6.05376 1.15089,-0.27265 2.42982,-1.04993 3.50442,-0.55584 2.85252,1.31154 5.92698,2.94667 7.54598,5.63663 0.90916,1.51056 -0.68744,3.45845 -1.03115,5.18768 -0.62739,0.68609 -1.18054,1.44831 -1.88214,2.0583 -7.23613,6.29121 -17.52145,7.54294 -26.54597,9.06425 -3.30208,0.30187 -6.59655,0.70332 -9.90621,0.90561 -23.87159,1.45896 -47.79745,-0.93086 -71.66926,-1.08842 -20.27212,0.0147 -40.64124,0.0158 -60.75651,2.87872 -0.87091,0.18308 -3.46009,-12.13345 -2.58918,-12.31653 z" />
    <path
       style="fill:#006680;fill-opacity:1;stroke:none"
       id="path3875"
       d="m 244.40181,130.79539 c 7.25833,-1.71869 14.85955,-2.1935 22.29142,-1.5305 1.86967,0.16679 3.72002,0.5054 5.58004,0.75811 2.29434,0.57873 4.65065,0.95169 6.88302,1.73619 5.36035,1.8838 10.81599,6.93978 9.50863,13.21562 -0.3147,1.51069 -1.30238,2.79799 -1.95358,4.19699 -1.29161,1.09829 -2.43521,2.39936 -3.87487,3.29487 -5.55144,3.4532 -12.53591,3.98768 -18.85554,4.2103 -7.39068,0.26034 -11.10774,-0.0944 -18.52179,-0.47512 -7.0389,-0.81614 -10.82594,-1.00028 -17.74263,-2.85215 -4.35538,-1.1661 -11.11554,-3.88445 -9.28647,-10.04634 0.55964,-1.88533 2.4269,-3.09528 3.64035,-4.64291 1.78649,-0.91651 3.51023,-1.96727 5.35946,-2.74952 3.79383,-1.60485 9.77397,-3.2234 13.67007,-4.19467 4.70815,-1.1737 10.72664,-2.47804 15.5454,-3.13294 2.44528,-0.33232 4.91368,-0.46377 7.37052,-0.69565 0.498,-0.14531 2.55302,6.89753 2.05501,7.04285 l 0,0 c -2.29638,0.12834 -4.60303,0.133 -6.88916,0.38504 -10.62804,1.17172 -21.20071,4.20902 -30.84589,8.78315 -0.45056,0.0234 -0.91361,0.178 -1.3517,0.0701 -0.41699,-0.10271 -1.10046,-1.10295 -1.09832,-0.6735 0.007,1.45583 3.83635,2.81476 5.21327,3.32936 5.03472,1.8816 7.31994,1.81539 13.16093,2.68246 9.67987,0.49773 19.89204,1.18206 29.34631,-1.58459 2.65863,-0.778 3.44087,-1.34469 5.59714,-2.56546 0.3302,-0.30402 0.73061,-0.54618 0.9906,-0.91207 2.17935,-3.06722 -5.3831,-6.00253 -7.20945,-6.64152 -1.63499,-0.28913 -3.25559,-0.67675 -4.90498,-0.86737 -6.43396,-0.74359 -13.13369,-0.36012 -19.31017,1.63519 -0.54984,0.30883 -4.91746,-7.46708 -4.36762,-7.77592 z" />
    <g
       style="font-size:96.1293335px;fill:#00222b;fill-opacity:1"
       id="text4747">
      <path
         d="m 313.66989,420.16124 c -6.0081,4e-5 -10.98354,2.03403 -14.92633,6.10196 -2.87888,2.56599 -4.7877,5.69519 -5.72645,9.38763 -0.87619,3.62991 -0.78231,7.16591 0.28163,10.60802 1.1265,3.37956 2.78498,6.47748 4.97544,9.29375 2.25302,2.8163 5.13189,4.88158 8.63662,6.19584 3.56727,1.25169 7.22845,1.37685 10.98353,0.3755 3.88018,-0.56325 7.13456,-2.03398 9.76313,-4.41218 2.62849,-2.44077 4.44343,-5.22577 5.44483,-8.35499 1.0013,-3.19178 1.31422,-6.57132 0.93876,-10.13864 -0.37555,-3.56727 -1.34561,-6.79036 -2.91016,-9.66926 -1.56465,-2.94142 -3.88027,-5.28833 -6.94685,-7.04073 -3.06666,-1.81489 -6.57137,-2.59719 -10.51415,-2.3469 m -27.78738,47.68916 0,-68.43583 c 0.25033,-1.81487 0.93876,-2.94138 2.06528,-3.37954 1.18909,-0.50061 2.31561,-0.31285 3.37954,0.56325 1.06393,0.81367 1.84623,1.94018 2.34691,3.37955 0.56325,1.37692 0.34421,3.0354 -0.65713,4.97545 0.18774,1.25174 0.25033,2.9728 0.18775,5.16319 -0.0626,2.12792 -0.18776,4.25578 -0.37551,6.38359 -0.12517,2.06533 -0.0313,3.66122 0.28163,4.78769 0.31292,1.06398 0.90747,1.15785 1.78365,0.28163 2.50336,-2.87882 5.47611,-4.97539 8.91825,-6.28971 3.50469,-1.3768 7.00941,-1.97135 10.51415,-1.78365 3.50468,0.1878 6.9781,1.03269 10.42027,2.53466 3.44209,1.43949 6.44612,3.3483 9.01212,5.72645 2.62849,2.37825 4.69376,5.28841 6.19584,8.7305 1.50196,3.44216 2.1278,7.04075 1.87752,10.79577 0.25028,4.13058 -0.50073,8.04209 -2.25303,11.73454 -1.75241,3.69248 -4.19319,6.7591 -7.32235,9.19988 -3.06667,2.44079 -6.4775,4.31831 -10.23252,5.63258 -3.6925,1.31426 -7.57271,1.72106 -11.64066,1.22039 -4.06799,-0.43809 -7.76046,-1.81494 -11.0774,-4.13056 -1.75237,-2.37819 -3.06664,-3.9115 -3.94281,-4.59994 -0.87618,-0.751 -1.43944,-0.81358 -1.68977,-0.18775 -0.18776,0.56327 -0.34422,1.37686 -0.46938,2.44078 -0.12518,1.06394 -0.34422,2.19045 -0.65714,3.37955 -0.25034,1.12652 -0.90747,1.87753 -1.9714,2.25303 -1.06393,0.43809 -2.62854,0.31292 -4.69381,-0.3755"
         style="font-style:normal;font-variant:normal;font-weight:normal;font-stretch:normal;fill:#00222b;font-family:Perizia;-inkscape-font-specification:Perizia"
         id="path2822" />
      <path
         d="m 345.86947,467.38102 0,-43.84024 c -0.87618,-1.43939 -1.2204,-2.87882 -1.03264,-4.31831 0.25033,-1.43938 0.81359,-2.5659 1.68977,-3.37954 0.93876,-0.81355 1.90881,-1.34551 2.91017,-1.5959 1.00134,-0.31287 1.87751,-0.0312 2.62853,0.84489 0.81359,0.81364 1.18909,2.1592 1.12652,4.03668 0.12516,0.1878 0.87617,-0.12512 2.25303,-0.93877 1.37684,-0.87613 2.84757,-1.81489 4.41218,-2.81629 1.62718,-1.06387 3.19178,-1.84618 4.69382,-2.3469 1.56458,-0.50062 2.59722,-0.28158 3.09792,0.65713 0.56323,0.87623 0.46936,2.78505 -0.28163,5.72646 -5.50743,1.43948 -9.5441,4.19318 -12.11004,8.26111 -2.56596,4.00542 -3.31697,8.88699 -2.25304,14.6447 -0.31292,1.3143 -0.46938,2.91019 -0.46938,4.78769 0,1.81497 0.18775,3.72378 0.56326,5.72646 0.3755,2.00271 0.56325,3.97411 0.56326,5.91421 0.0626,1.87753 -0.0626,3.53601 -0.37551,4.97544 -0.25034,1.43944 -1.00135,2.50337 -2.25303,3.19179 -1.25169,0.68843 -2.97275,0.84489 -5.16319,0.46939"
         style="font-style:normal;font-variant:normal;font-weight:normal;font-stretch:normal;fill:#00222b;font-family:Perizia;-inkscape-font-specification:Perizia"
         id="path2824" />
      <path
         d="m 377.4119,436.87122 32.29345,0 c 2.50333,0.93879 4.28697,1.09525 5.35095,0.46938 1.06389,-0.6884 1.62714,-1.68974 1.68977,-3.00404 0.12512,-1.37682 -0.25038,-2.87884 -1.12651,-4.50606 -0.87623,-1.62715 -1.97145,-2.91013 -3.28567,-3.84893 -2.56599,-2.94142 -5.78908,-4.78765 -9.66926,-5.5387 -3.88025,-0.81355 -7.60401,-0.65709 -11.17128,0.46938 -3.56732,1.06397 -6.72782,3.03537 -9.48151,5.9142 -2.69113,2.87891 -4.22444,6.22717 -4.59994,10.04477 m 47.68916,6.57134 -40.46068,0 c -2.69113,-0.75099 -4.63124,-0.75099 -5.82033,0 -1.12653,0.68845 -1.53332,1.84626 -1.22039,3.47342 0.37549,1.56463 1.06392,3.2544 2.06527,5.06932 1.00134,1.75237 2.28432,3.37956 3.84893,4.88157 1.62718,1.50203 3.16049,2.47208 4.59994,2.91017 5.0693,2.75371 10.23249,3.31696 15.48959,1.68977 5.31962,-1.68977 9.3563,-5.00673 12.11004,-9.95089 1.50198,-0.93875 2.75366,-1.43942 3.75506,-1.50202 1.06388,-0.12515 1.78359,0.0939 2.15915,0.65713 0.37545,0.56328 0.53191,1.31429 0.46938,2.25304 -5e-5,0.93877 -0.21909,1.94012 -0.65713,3.00404 -0.43814,1.00135 -1.06398,1.97141 -1.87753,2.91016 -0.81364,0.93877 -1.72111,1.6272 -2.72241,2.06528 -3.00409,3.31697 -6.72784,5.57 -11.17128,6.7591 -4.38093,1.18909 -8.69923,1.37685 -12.95493,0.56325 -4.25574,-0.81359 -8.26113,-2.56595 -12.01617,-5.25707 -3.75506,-2.7537 -6.50876,-6.13324 -8.26111,-10.13864 -1.56461,-3.06661 -2.44079,-6.35228 -2.62854,-9.85701 -0.18775,-3.50469 0.25034,-6.85294 1.31427,-10.04477 1.12651,-3.25434 2.69112,-6.25838 4.69382,-9.01212 2.00268,-2.75366 4.47476,-5.03798 7.41622,-6.85297 3.00403,-1.87748 6.19582,-3.06657 9.57539,-3.5673 4.19311,-0.81354 8.38625,-0.53191 12.57942,0.84489 4.1931,1.3769 7.79169,3.47347 10.79578,6.28971 3.06657,2.81633 5.44477,6.28975 7.13459,10.42027 1.68972,4.068 2.28427,8.19856 1.78365,12.39167"
         style="font-style:normal;font-variant:normal;font-weight:normal;font-stretch:normal;fill:#00222b;font-family:Perizia;-inkscape-font-specification:Perizia"
         id="path2826" />
      <path
         d="m 455.79861,418.94084 c -3.31699,-0.12512 -6.35232,0.50073 -9.106,1.87753 -2.75372,1.3769 -5.00675,3.19184 -6.75909,5.44483 -1.75237,2.25307 -3.06664,4.85031 -3.94281,7.79173 -0.8136,2.8789 -1.09523,5.75777 -0.84489,8.63662 0.25033,2.87889 1.12651,5.66389 2.62854,8.35499 1.56459,2.69113 3.72375,4.91287 6.47747,6.66522 2.87885,1.94011 5.69514,3.22309 8.44886,3.84893 2.81626,0.62584 5.35092,0.62584 7.60398,0 2.253,-0.68842 4.34957,-1.78365 6.28972,-3.28568 1.94006,-1.50201 3.56725,-3.31695 4.88156,-5.44482 1.31423,-2.19043 2.31557,-4.50604 3.00404,-6.94685 0.75097,-2.50334 1.15776,-5.00671 1.2204,-7.5101 0.0625,-2.56592 -0.31297,-5.0067 -1.12652,-7.32235 -0.81364,-2.31558 -1.97145,-4.38086 -3.47342,-6.19584 -1.50206,-1.8149 -3.56734,-3.25433 -6.19584,-4.31831 -2.62857,-1.06388 -5.6639,-1.59585 -9.106,-1.5959 m 27.97514,-5.35094 0,49.66056 c -0.18781,1.56461 -0.71978,2.65983 -1.5959,3.28567 -0.81365,0.62584 -1.68982,0.75101 -2.62853,0.3755 -0.93882,-0.43808 -1.815,-1.06393 -2.62854,-1.87752 -0.75106,-0.87618 -1.18915,-2.00269 -1.31427,-3.37955 -0.12522,-1.43943 0.1877,-2.87886 0.93876,-4.31831 -2.06532,3.25439 -4.75644,5.78904 -8.07336,7.60398 -3.25441,1.75236 -6.63396,2.72241 -10.13864,2.91017 -3.50474,0.18775 -7.07204,-0.25034 -10.7019,-1.31427 -3.6299,-1.06393 -6.88427,-2.65983 -9.76313,-4.78769 -2.8163,-2.12786 -5.1632,-4.81898 -7.04073,-8.07336 -1.87752,-3.25437 -2.87887,-6.75908 -3.00404,-10.51415 -0.62584,-3.56727 -0.43809,-7.07198 0.56326,-10.51415 1.00135,-3.44209 2.53466,-6.47742 4.59994,-9.106 2.12785,-2.62849 4.6938,-4.88152 7.69786,-6.75909 3.00402,-1.87747 6.13323,-3.19174 9.38763,-3.94281 3.31693,-0.81353 6.72777,-0.90741 10.23251,-0.28162 3.50468,0.56331 6.75906,1.84628 9.76314,3.84892 1.8149,2.566 3.16046,4.25578 4.03668,5.06932 0.93872,0.81364 1.50197,0.90752 1.68977,0.28163 0.25029,-0.62579 0.43804,-1.47068 0.56326,-2.53466 0.12512,-1.12646 0.31287,-2.28427 0.56326,-3.47342 0.31287,-1.25163 1.0013,-2.09652 2.06528,-2.53466 1.06388,-0.43804 2.65977,-0.31287 4.78769,0.37551"
         style="font-style:normal;font-variant:normal;font-weight:normal;font-stretch:normal;fill:#00222b;font-family:Perizia;-inkscape-font-specification:Perizia"
         id="path2828" />
      <path
         d="m 489.03083,467.00551 0,-44.59124 c -0.81359,-1.43939 -1.12651,-2.84754 -0.93876,-4.22444 0.25034,-1.3768 0.8136,-2.40944 1.68977,-3.09791 0.93877,-0.75096 1.87753,-1.22034 2.81629,-1.40815 1.00135,-0.25028 1.87752,5e-5 2.62854,0.75101 0.751,0.75106 1.09522,1.94016 1.03264,3.5673 0.751,-0.56321 2.00268,-1.22034 3.75505,-1.9714 1.75235,-0.75096 3.9115,-1.43939 6.47747,-2.06528 2.62851,-0.62579 5.19446,-0.93871 7.69785,-0.93876 2.56593,-0.0625 5.00671,0.53202 7.32236,1.78365 2.37816,1.18915 4.16181,3.06667 5.35094,5.63258 0.81356,4e-5 2.06524,-0.46934 3.75506,-1.40815 1.75231,-0.93871 3.62983,-1.94006 5.63257,-3.00404 2.00265,-1.06388 4.13051,-2.00264 6.38359,-2.81629 2.25298,-0.87612 4.56859,-1.22034 6.94685,-1.03264 2.44072,0.12522 4.69375,0.93882 6.75909,2.44078 2.44072,1.12657 4.4747,2.62859 6.10196,4.50607 1.62712,1.81499 2.78492,3.78639 3.47343,5.9142 0.68834,2.12791 1.18902,4.47481 1.50202,7.04073 0.37542,2.5034 0.50059,5.00676 0.3755,7.5101 -0.12525,2.44081 -0.18783,4.94418 -0.18775,7.5101 -8e-5,2.56597 0.0312,4.97546 0.0939,7.22848 -0.0627,0.68844 -0.0627,1.53332 0,2.53466 0.0625,0.93877 0.0938,1.81495 0.0939,2.62854 0.0625,0.75101 0.0938,1.56461 0.0939,2.44078 -8e-5,0.87618 -0.0627,1.62719 -0.18775,2.25303 -0.12525,0.62585 -0.37559,1.2204 -0.75101,1.78365 -0.313,0.56326 -0.75109,0.97006 -1.31427,1.22039 -0.50075,0.25034 -1.18918,0.37551 -2.06528,0.37551 -0.87625,0 -1.8776,-0.18775 -3.00404,-0.56326 l 0,-21.30992 c 0.56318,-3.44211 0.56318,-6.97811 0,-10.60802 -0.50075,-3.62985 -1.59597,-6.88422 -3.28567,-9.76314 -1.62726,-2.94141 -3.94287,-4.88152 -6.94685,-5.82033 -2.94152,-1.0013 -6.5401,-0.56321 -10.79577,1.31427 -2.1905,1.3769 -3.91156,3.09796 -5.1632,5.1632 -1.25173,2.06531 -2.00274,4.22447 -2.25303,6.47746 -0.25038,2.25307 -0.37555,4.69385 -0.37551,7.32235 -4e-5,2.56598 0.0938,5.03805 0.28163,7.41623 0.25029,2.37822 0.219,4.75642 -0.0939,7.1346 -0.0626,0.68844 -0.0626,1.53332 0,2.53466 0.0625,0.93877 0.0938,1.81495 0.0939,2.62854 0.0625,0.75101 0.0938,1.56461 0.0939,2.44078 -5e-5,0.87618 -0.0626,1.62719 -0.18776,2.25303 -0.12521,0.62585 -0.37554,1.2204 -0.75101,1.78365 -0.31296,0.56326 -0.75105,0.97006 -1.31426,1.22039 -0.50072,0.25034 -1.18914,0.37551 -2.06528,0.37551 -0.87622,0 -1.87757,-0.18775 -3.00404,-0.56326 l 0,-21.49767 c 0.56322,-3.31694 0.59451,-6.72778 0.0939,-10.23252 -0.50071,-3.50468 -1.56464,-6.69647 -3.19179,-9.57538 -1.62722,-2.87883 -3.88025,-4.85023 -6.7591,-5.91421 -2.81631,-1.06388 -6.32102,-0.84484 -10.51414,0.65714 -2.31563,1.25172 -4.13057,2.9415 -5.44483,5.06932 -1.31428,2.06531 -2.12787,4.25576 -2.44078,6.57134 -0.25035,2.25306 -0.40681,4.69384 -0.46938,7.32235 -0.0626,2.62856 -10e-6,5.19451 0.18775,7.69785 0.25033,2.44081 0.25033,4.8503 0,7.22848 -0.0626,0.68844 -0.0939,1.53332 -0.0939,2.53466 0.0626,0.93877 0.12516,1.81495 0.18776,2.62854 0.0626,0.75101 0.0626,1.56461 0,2.44078 -10e-6,0.87618 -0.0626,1.62719 -0.18776,2.25303 -0.12517,0.62585 -0.37551,1.2204 -0.75101,1.78365 -0.31292,0.56326 -0.75101,0.97006 -1.31427,1.22039 -0.50067,0.25034 -1.1891,0.37551 -2.06527,0.37551 -0.87619,0 -1.87753,-0.18775 -3.00405,-0.56326"
         style="font-style:normal;font-variant:normal;font-weight:normal;font-stretch:normal;fill:#00222b;font-family:Perizia;-inkscape-font-specification:Perizia"
         id="path2830" />
    </g>
    <g
       style="font-size:96.1293335px;fill:#2c89a0;fill-opacity:1"
       id="text4751">
      <path
         d="m 125.76804,420.16124 c -6.0081,4e-5 -10.98354,2.03403 -14.92633,6.10196 -2.87888,2.56599 -4.7877,5.69519 -5.72645,9.38763 -0.87619,3.62991 -0.78231,7.16591 0.28163,10.60802 1.1265,3.37956 2.78498,6.47748 4.97544,9.29375 2.25302,2.8163 5.13189,4.88158 8.63662,6.19584 3.56728,1.25169 7.22845,1.37685 10.98353,0.3755 3.88018,-0.56325 7.13456,-2.03398 9.76313,-4.41218 2.6285,-2.44077 4.44344,-5.22577 5.44483,-8.35499 1.0013,-3.19178 1.31422,-6.57132 0.93876,-10.13864 -0.37555,-3.56727 -1.3456,-6.79036 -2.91016,-9.66926 -1.56465,-2.94142 -3.88026,-5.28833 -6.94685,-7.04073 -3.06666,-1.81489 -6.57137,-2.59719 -10.51415,-2.3469 m -27.787381,47.68916 0,-68.43583 c 0.250337,-1.81487 0.938763,-2.94138 2.065281,-3.37954 1.18909,-0.50061 2.31561,-0.31285 3.37955,0.56325 1.06392,0.81367 1.84622,1.94018 2.3469,3.37955 0.56325,1.37692 0.34421,3.0354 -0.65713,4.97545 0.18774,1.25174 0.25033,2.9728 0.18775,5.16319 -0.0626,2.12792 -0.18776,4.25578 -0.3755,6.38359 -0.12518,2.06533 -0.0313,3.66122 0.28162,4.78769 0.31292,1.06398 0.90747,1.15785 1.78365,0.28163 2.50336,-2.87882 5.47611,-4.97539 8.91825,-6.28971 3.5047,-1.3768 7.00941,-1.97135 10.51415,-1.78365 3.50468,0.1878 6.9781,1.03269 10.42027,2.53466 3.44209,1.43949 6.44613,3.3483 9.01212,5.72645 2.62849,2.37825 4.69377,5.28841 6.19584,8.7305 1.50196,3.44216 2.12781,7.04075 1.87753,10.79577 0.25028,4.13058 -0.50073,8.04209 -2.25304,11.73454 -1.75241,3.69248 -4.19319,6.7591 -7.32235,9.19988 -3.06667,2.44079 -6.4775,4.31831 -10.23251,5.63258 -3.6925,1.31426 -7.57272,1.72106 -11.64067,1.22039 -4.06799,-0.43809 -7.76045,-1.81494 -11.0774,-4.13056 -1.75237,-2.37819 -3.06664,-3.9115 -3.9428,-4.59994 -0.87619,-0.751 -1.43945,-0.81358 -1.68978,-0.18775 -0.18776,0.56327 -0.34422,1.37686 -0.46938,2.44078 -0.12517,1.06394 -0.34422,2.19045 -0.65713,3.37955 -0.25035,1.12652 -0.90748,1.87753 -1.97141,2.25303 -1.06393,0.43809 -2.62853,0.31292 -4.693811,-0.3755"
         style="font-style:normal;font-variant:normal;font-weight:normal;font-stretch:normal;fill:#2c89a0;font-family:Perizia;-inkscape-font-specification:Perizia"
         id="path2833" />
      <path
         d="m 157.12273,467.75652 0,-58.20331 c 0,-0.81353 0,-1.65842 0,-2.53466 0,-0.9387 -0.0313,-1.84617 -0.0939,-2.72241 -0.0626,-0.9387 -0.0939,-1.81488 -0.0939,-2.62854 0,-0.87611 0.0313,-1.6897 0.0939,-2.44078 0.12517,-0.75094 0.34422,-1.40807 0.65714,-1.9714 0.3755,-0.56319 0.81359,-1.00128 1.31427,-1.31427 0.50067,-0.31285 1.18909,-0.43802 2.06528,-0.37551 0.93875,8e-5 2.03398,0.18783 3.28567,0.56326 l 0,58.29719 c -1e-5,0.8136 -1e-5,1.65849 0,2.53466 -1e-5,0.87618 0.0313,1.78365 0.0939,2.72241 0.0626,0.87618 0.0626,1.75236 0,2.62854 0,0.87618 -0.0313,1.68977 -0.0939,2.44078 -0.0626,0.75101 -0.28164,1.40815 -0.65714,1.9714 -0.31293,0.50068 -0.75101,0.90747 -1.31427,1.22039 -0.50067,0.31292 -1.1891,0.43809 -2.06527,0.37551 -0.87619,0 -1.94012,-0.18775 -3.1918,-0.56326"
         style="font-style:normal;font-variant:normal;font-weight:normal;font-stretch:normal;fill:#2c89a0;font-family:Perizia;-inkscape-font-specification:Perizia"
         id="path2835" />
      <path
         d="m 214.95053,414.81029 0,49.28506 c 0.31288,1.31427 0.12512,2.3469 -0.56325,3.09791 -0.62589,0.68843 -1.43949,1.00135 -2.44079,0.93877 -1.00139,-0.0626 -1.97144,-0.34422 -2.91016,-0.84489 -0.93881,-0.43809 -1.56465,-1.1891 -1.87753,-2.25303 -0.31296,-1.12651 -0.12521,-2.3469 0.56326,-3.66118 -0.9388,1.50203 -3.19183,3.09792 -6.7591,4.78769 -3.50474,1.62719 -7.41625,2.62854 -11.73453,3.00405 -4.25575,0.43808 -8.04209,-0.71972 -11.35904,-3.47343 -2.56596,-1.68977 -4.59994,-3.78634 -6.10196,-6.28971 -1.50202,-2.56594 -2.47207,-5.19448 -2.91016,-7.88561 -0.37551,-2.75369 -0.62584,-5.69514 -0.75101,-8.82437 -0.0626,-3.12918 0,-6.13322 0.18775,-9.01213 0.25034,-2.94142 0.21905,-5.85158 -0.0939,-8.73049 -0.0626,-1.25164 -0.12517,-2.15911 -0.18776,-2.72242 0,-0.56321 0,-1.3768 0,-2.44078 0,-1.06388 0.0626,-1.81489 0.18776,-2.25303 0.18775,-0.50062 0.43808,-1.06388 0.75101,-1.68977 0.3755,-0.68838 0.81359,-1.09517 1.31426,-1.2204 0.56326,-0.1877 1.28298,-0.28157 2.15916,-0.28162 0.87617,-0.0625 1.87752,0.0939 3.00404,0.46938 l 0,26.75474 c -0.68843,2.81632 -0.68843,5.57002 0,8.26112 0.68842,2.69113 1.90881,5.00675 3.66118,6.94684 1.81493,1.87754 3.84891,3.37956 6.10196,4.50607 2.31559,1.12652 4.85025,1.5959 7.60398,1.40814 2.75367,-0.25033 5.31962,-1.22039 7.69785,-2.91016 2.06525,-1.5646 3.69243,-3.44212 4.88157,-5.63258 1.18906,-2.19043 1.90878,-4.44346 2.15916,-6.7591 0.25029,-2.31559 0.37546,-4.78766 0.3755,-7.41622 0.0626,-2.69109 -4e-5,-5.25704 -0.18775,-7.69786 -0.18779,-2.44075 -0.18779,-4.88153 0,-7.32235 -0.0626,-1.25164 -0.12521,-2.15911 -0.18775,-2.72242 -4e-5,-0.56321 -4e-5,-1.3768 0,-2.44078 -4e-5,-1.06388 0.0625,-1.81489 0.18775,-2.25303 0.18771,-0.50062 0.43805,-1.06388 0.75101,-1.68977 0.37546,-0.68838 0.81355,-1.09517 1.31427,-1.2204 0.56321,-0.1877 1.28293,-0.28157 2.15915,-0.28162 0.87614,-0.0625 1.87748,0.0939 3.00404,0.46938"
         style="font-style:normal;font-variant:normal;font-weight:normal;font-stretch:normal;fill:#2c89a0;font-family:Perizia;-inkscape-font-specification:Perizia"
         id="path2837" />
      <path
         d="m 226.68507,436.87122 32.29345,0 c 2.50333,0.93879 4.28697,1.09525 5.35095,0.46938 1.06389,-0.6884 1.62714,-1.68974 1.68977,-3.00404 0.12513,-1.37682 -0.25038,-2.87884 -1.12651,-4.50606 -0.87623,-1.62715 -1.97145,-2.91013 -3.28567,-3.84893 -2.56599,-2.94142 -5.78908,-4.78765 -9.66926,-5.5387 -3.88025,-0.81355 -7.60401,-0.65709 -11.17128,0.46938 -3.56732,1.06397 -6.72782,3.03537 -9.48151,5.9142 -2.69113,2.87891 -4.22444,6.22717 -4.59994,10.04477 m 47.68916,6.57134 -40.46068,0 c -2.69113,-0.75099 -4.63124,-0.75099 -5.82033,0 -1.12653,0.68845 -1.53332,1.84626 -1.22039,3.47342 0.37549,1.56463 1.06392,3.2544 2.06527,5.06932 1.00134,1.75237 2.28432,3.37956 3.84893,4.88157 1.62718,1.50203 3.16049,2.47208 4.59994,2.91017 5.0693,2.75371 10.23249,3.31696 15.48959,1.68977 5.31962,-1.68977 9.3563,-5.00673 12.11004,-9.95089 1.50198,-0.93875 2.75366,-1.43942 3.75506,-1.50202 1.06388,-0.12515 1.7836,0.0939 2.15915,0.65713 0.37545,0.56328 0.53192,1.31429 0.46938,2.25304 -5e-5,0.93877 -0.21909,1.94012 -0.65713,3.00404 -0.43814,1.00135 -1.06398,1.97141 -1.87753,2.91016 -0.81364,0.93877 -1.72111,1.6272 -2.72241,2.06528 -3.00409,3.31697 -6.72784,5.57 -11.17128,6.7591 -4.38093,1.18909 -8.69923,1.37685 -12.95493,0.56325 -4.25574,-0.81359 -8.26113,-2.56595 -12.01617,-5.25707 -3.75506,-2.7537 -6.50876,-6.13324 -8.26111,-10.13864 -1.56461,-3.06661 -2.44078,-6.35228 -2.62854,-9.85701 -0.18775,-3.50469 0.25034,-6.85294 1.31427,-10.04477 1.12651,-3.25434 2.69112,-6.25838 4.69382,-9.01212 2.00268,-2.75366 4.47476,-5.03798 7.41622,-6.85297 3.00403,-1.87748 6.19582,-3.06657 9.57539,-3.5673 4.19311,-0.81354 8.38625,-0.53191 12.57942,0.84489 4.1931,1.3769 7.79169,3.47347 10.79578,6.28971 3.06657,2.81633 5.44477,6.28975 7.1346,10.42027 1.68971,4.068 2.28426,8.19856 1.78364,12.39167"
         style="font-style:normal;font-variant:normal;font-weight:normal;font-stretch:normal;fill:#2c89a0;font-family:Perizia;-inkscape-font-specification:Perizia"
         id="path2839" />
    </g>
  </g>
</svg>
